<?xml version="1.0" encoding="UTF-8" standalone="no"?>
<!DOCTYPE svg PUBLIC "-//W3C//DTD SVG 1.1//EN" "http://www.w3.org/Graphics/SVG/1.1/DTD/svg11.dtd">
<svg xmlns="http://www.w3.org/2000/svg" version="1.1" viewBox="0.00 0.00 1116.00 205.00">
<g stroke-width="2.00" fill="none" stroke-linecap="butt">
<path stroke="#a48016" vector-effect="non-scaling-stroke" d="
  M 268.92 95.72
  Q 268.75 94.32 266.27 95.17"
/>
<path stroke="#a48016" vector-effect="non-scaling-stroke" d="
  M 250.02 98.21
  Q 249.57 98.56 249.26 98.44
  Q 248.59 98.18 249.00 97.57
  Q 249.03 97.53 248.96 97.48
  Q 248.93 97.46 248.91 97.42
  Q 248.82 97.28 248.81 97.32
  Q 248.26 99.06 247.42 100.69
  A 1.52 1.51 54.6 0 0 247.27 101.60
  C 249.24 116.95 268.09 117.63 267.95 133.32
  Q 267.95 133.89 267.38 133.96
  Q 266.37 134.08 265.06 133.60"
/>
<path stroke="#90661a" vector-effect="non-scaling-stroke" d="
  M 267.53 139.26
  Q 259.64 145.42 253.33 144.69
  Q 251.93 144.53 246.72 143.24
  Q 246.40 143.16 246.25 143.46
  Q 246.19 143.58 246.19 143.72"
/>
<path stroke="#a48016" vector-effect="non-scaling-stroke" d="
  M 323.29 144.65
  Q 320.09 141.86 319.45 140.27
  Q 316.32 132.43 304.91 101.57
  Q 302.75 95.75 302.15 92.07
  Q 302.09 91.76 301.78 91.73
  Q 301.67 91.72 301.53 91.72"
/>
<path stroke="#a48016" vector-effect="non-scaling-stroke" d="
  M 308.35 123.44
  Q 307.99 122.99 309.17 122.98
  A 0.54 0.54 0.0 0 0 309.71 122.44
  Q 309.71 121.47 308.00 120.91"
/>
<path stroke="#a48016" vector-effect="non-scaling-stroke" d="
  M 301.40 101.70
  L 301.29 97.69
  A 0.31 0.31 0.0 0 0 300.68 97.60
  L 285.46 141.43
  Q 285.27 141.98 285.66 142.42
  L 287.33 144.26"
/>
<path stroke="#90661a" vector-effect="non-scaling-stroke" d="
  M 307.36 123.83
  Q 307.31 123.23 306.43 123.08
  Q 302.89 122.47 299.67 123.65"
/>
<path stroke="#90661a" vector-effect="non-scaling-stroke" d="
  M 469.02 91.05
  Q 469.84 92.03 469.99 94.12"
/>
<path stroke="#a48016" vector-effect="non-scaling-stroke" d="
  M 469.29 144.39
  C 467.68 142.83 466.75 142.02 466.75 139.60
  Q 466.74 117.54 466.76 95.46
  Q 466.76 94.96 466.41 94.60
  Q 464.03 92.16 460.73 91.62
  A 0.62 0.61 10.6 0 0 460.02 92.10
  Q 459.85 92.83 460.16 93.50"
/>
<path stroke="#a48016" vector-effect="non-scaling-stroke" d="
  M 461.50 144.73
  Q 461.14 144.07 461.22 142.98"
/>
<path stroke="#a48016" vector-effect="non-scaling-stroke" d="
  M 372.81 90.96
  Q 373.83 92.77 375.62 93.96
  A 0.92 0.91 17.6 0 1 376.03 94.74
  C 375.86 101.39 377.20 129.29 373.76 133.31
  Q 372.85 134.36 371.73 133.76"
/>
<path stroke="#90661a" vector-effect="non-scaling-stroke" d="
  M 370.09 142.28
  Q 370.18 141.39 368.91 141.43
  Q 368.36 141.45 367.66 141.83
  Q 359.08 146.49 349.62 143.03"
/>
<path stroke="#a48016" vector-effect="non-scaling-stroke" d="
  M 349.62 143.03
  Q 340.48 138.40 339.73 127.53
  Q 338.78 113.64 339.57 95.39
  A 0.93 0.91 -73.0 0 0 339.15 94.58
  L 336.26 92.76"
/>
<path stroke="#90661a" vector-effect="non-scaling-stroke" d="
  M 336.11 91.31
  Q 335.49 91.36 336.26 92.76"
/>
<path stroke="#e3bc2a" vector-effect="non-scaling-stroke" d="
  M 336.26 92.76
  Q 335.43 93.17 335.86 93.48"
/>
<path stroke="#90661a" vector-effect="non-scaling-stroke" d="
  M 379.26 93.02
  Q 378.37 92.57 378.22 91.76
  Q 378.14 91.31 378.75 91.10"
/>
<path stroke="#e3bc2a" vector-effect="non-scaling-stroke" d="
  M 349.62 143.03
  Q 349.84 143.16 349.93 143.29
  Q 350.18 143.63 349.76 143.70
  L 348.69 143.86"
/>
<path stroke="#90661a" vector-effect="non-scaling-stroke" d="
  M 397.84 91.02
  Q 397.60 91.39 397.96 91.98"
/>
<path stroke="#e3bc2a" vector-effect="non-scaling-stroke" d="
  M 397.96 91.98
  Q 397.53 91.93 397.17 92.19
  Q 396.89 92.39 396.93 92.74
  L 396.98 93.32"
/>
<path stroke="#a48016" vector-effect="non-scaling-stroke" d="
  M 419.42 143.07
  C 425.59 145.12 433.29 141.03 437.76 137.06
  C 438.92 136.02 439.74 133.92 437.86 133.22"
/>
<path stroke="#a48016" vector-effect="non-scaling-stroke" d="
  M 443.90 131.51
  Q 442.49 130.28 442.78 129.26
  C 445.18 120.90 445.02 110.92 440.39 103.61
  C 433.69 93.01 418.64 91.53 406.82 92.68
  Q 405.92 92.77 405.30 93.01
  A 0.77 0.77 0.0 0 0 405.52 94.49
  L 406.44 94.56"
/>
<path stroke="#a48016" vector-effect="non-scaling-stroke" d="
  M 416.30 143.21
  Q 409.54 145.34 403.66 142.56
  C 401.83 141.70 402.63 139.45 402.59 138.20
  Q 401.92 117.01 402.56 95.77
  A 1.51 1.50 -62.7 0 0 402.27 94.85
  Q 400.75 92.83 397.96 91.98"
/>
<path stroke="#a48016" vector-effect="non-scaling-stroke" d="
  M 553.93 98.16
  Q 553.79 96.39 552.69 95.99
  C 541.64 92.06 525.73 91.60 517.13 101.11
  Q 514.46 104.06 513.39 102.50"
/>
<path stroke="#a48016" vector-effect="non-scaling-stroke" d="
  M 514.82 112.29
  L 512.60 112.05
  Q 512.13 112.00 512.05 112.46
  C 507.92 136.29 525.26 148.66 547.14 145.64
  Q 550.17 145.22 553.62 145.40"
/>
<path stroke="#a48016" vector-effect="non-scaling-stroke" d="
  M 617.59 133.06
  Q 618.15 120.62 617.88 117.21
  Q 616.14 95.48 593.97 93.36
  C 586.34 92.63 580.22 95.73 574.83 101.02
  Q 572.33 103.47 569.48 105.03"
/>
<path stroke="#a48016" vector-effect="non-scaling-stroke" d="
  M 677.85 136.60
  Q 677.92 138.15 679.67 139.71
  Q 680.08 140.08 680.08 139.53
  L 679.83 96.46
  Q 679.83 95.98 679.43 95.72
  L 675.02 92.73"
/>
<path stroke="#90661a" vector-effect="non-scaling-stroke" d="
  M 682.21 93.01
  Q 680.92 96.18 681.99 96.35"
/>
<path stroke="#a48016" vector-effect="non-scaling-stroke" d="
  M 680.53 146.56
  Q 680.15 142.81 678.23 140.78
  Q 659.17 120.60 640.15 100.38
  C 638.20 98.32 637.25 96.15 636.27 93.61
  Q 636.15 93.29 635.81 93.24
  Q 635.67 93.22 635.51 93.21"
/>
<path stroke="#a48016" vector-effect="non-scaling-stroke" d="
  M 639.21 104.52
  L 637.41 100.95
  Q 637.09 100.32 637.10 101.02
  L 637.69 143.10
  A 1.20 1.16 -71.1 0 0 638.10 143.98
  Q 639.48 145.15 639.94 146.43"
/>
<path stroke="#a48016" vector-effect="non-scaling-stroke" d="
  M 721.84 96.91
  Q 723.71 96.38 722.19 95.11
  Q 721.67 94.68 720.85 94.45
  C 714.59 92.67 708.34 92.86 704.37 97.81
  A 0.73 0.73 0.0 0 0 705.15 98.97
  L 705.92 98.74"
/>
<path stroke="#90661a" vector-effect="non-scaling-stroke" d="
  M 723.13 140.91
  Q 713.95 148.31 703.62 145.87"
/>
<path stroke="#a48016" vector-effect="non-scaling-stroke" d="
  M 720.29 135.37
  Q 722.57 136.89 722.89 135.50
  C 726.25 121.29 701.20 117.51 702.58 101.21
  Q 702.62 100.75 702.16 100.70
  Q 701.24 100.60 700.95 99.54"
/>
<path stroke="#a48016" vector-effect="non-scaling-stroke" d="
  M 899.33 92.13
  Q 897.35 93.59 898.39 96.55
  Q 902.92 109.48 915.30 141.68
  C 916.21 144.05 918.84 147.23 921.40 145.43"
/>
<path stroke="#a48016" vector-effect="non-scaling-stroke" d="
  M 905.29 125.46
  Q 905.81 124.06 904.34 122.94"
/>
<path stroke="#a48016" vector-effect="non-scaling-stroke" d="
  M 897.39 103.25
  L 897.59 98.80
  A 0.30 0.30 0.0 0 0 897.01 98.68
  Q 889.05 120.79 881.70 142.99
  Q 881.18 144.56 882.96 145.54
  Q 883.50 145.83 882.99 146.17
  L 882.23 146.66"
/>
<path stroke="#90661a" vector-effect="non-scaling-stroke" d="
  M 903.56 125.76
  Q 898.24 123.57 894.20 126.01"
/>
<path stroke="#a48016" vector-effect="non-scaling-stroke" d="
  M 975.89 136.18
  Q 976.23 138.18 977.74 139.85
  Q 978.09 140.24 978.08 139.72
  Q 977.91 119.83 978.03 99.94
  C 978.04 98.98 978.58 97.69 978.00 96.46
  C 977.39 95.18 975.74 95.00 975.46 93.04"
/>
<path stroke="#a48016" vector-effect="non-scaling-stroke" d="
  M 978.39 146.66
  Q 978.44 142.86 975.48 139.77
  Q 956.69 120.18 938.25 100.27
  C 936.21 98.08 935.41 95.57 933.92 92.97"
/>
<path stroke="#a48016" vector-effect="non-scaling-stroke" d="
  M 937.23 104.11
  Q 937.23 103.14 935.84 101.52
  Q 935.40 101.01 935.31 101.68
  Q 935.13 102.98 935.19 104.81
  Q 935.61 119.38 935.54 140.57
  Q 935.53 144.25 938.02 145.69
  Q 938.51 145.98 938.05 146.32
  Q 937.71 146.58 936.98 146.66"
/>
<path stroke="#a48016" vector-effect="non-scaling-stroke" d="
  M 1039.89 97.66
  Q 1040.11 97.10 1040.51 97.14
  A 0.43 0.42 -31.5 0 0 1040.71 96.32
  Q 1031.06 92.67 1020.98 93.71
  C 1012.83 94.55 1008.82 96.52 1003.64 102.01
  Q 1001.85 103.91 999.63 104.11"
/>
<path stroke="#a48016" vector-effect="non-scaling-stroke" d="
  M 1003.09 107.45
  C 997.63 109.69 998.43 120.74 999.49 125.49
  C 1003.68 144.18 1022.23 149.20 1039.08 144.91
  Q 1039.59 144.77 1039.94 144.93
  Q 1040.48 145.18 1040.51 145.70"
/>
<path stroke="#a48016" vector-effect="non-scaling-stroke" d="
  M 832.94 92.75
  Q 832.26 93.58 832.93 94.32
  Q 833.35 94.78 833.96 94.79
  L 851.69 95.03
  A 1.17 1.17 0.0 0 1 852.85 96.19
  L 853.06 143.09
  A 1.45 1.40 -65.4 0 0 853.36 143.94
  L 855.28 146.39"
/>
<path stroke="#9c7b40" vector-effect="non-scaling-stroke" d="
  M 873.82 98.44
  C 874.21 96.12 872.49 95.00 870.29 95.02
  Q 862.69 95.08 854.94 94.78
  Q 854.32 94.76 854.57 95.33
  Q 855.17 96.67 857.54 96.64"
/>
<path stroke="#a48016" vector-effect="non-scaling-stroke" d="
  M 739.21 92.99
  L 743.13 96.29
  A 1.05 1.03 -70.4 0 1 743.50 97.09
  Q 743.45 110.27 743.66 123.43
  C 743.84 135.48 747.25 145.98 761.33 146.34
  Q 767.03 146.48 772.20 143.54
  Q 772.84 143.18 773.34 143.19
  Q 774.35 143.21 774.42 143.94"
/>
<path stroke="#a48016" vector-effect="non-scaling-stroke" d="
  M 774.80 138.51
  Q 775.59 139.02 776.15 138.97
  Q 776.64 138.93 777.02 138.13
  Q 780.22 131.46 780.24 123.99
  Q 780.28 110.36 780.24 96.66
  Q 780.23 96.17 779.83 95.88
  L 777.23 93.97"
/>
<path stroke="#90661a" vector-effect="non-scaling-stroke" d="
  M 777.26 93.00
  L 777.23 93.97"
/>
<path stroke="#e3bc2a" vector-effect="non-scaling-stroke" d="
  M 777.23 93.97
  L 776.48 94.61"
/>
<path stroke="#90661a" vector-effect="non-scaling-stroke" d="
  M 783.45 95.03
  Q 782.17 95.32 783.26 92.75"
/>
<path stroke="#90661a" vector-effect="non-scaling-stroke" d="
  M 746.96 96.07
  L 746.95 93.05"
/>
<path stroke="#a48016" vector-effect="non-scaling-stroke" d="
  M 801.52 92.79
  L 805.73 95.78
  A 2.41 2.41 0.0 0 1 806.75 97.75
  L 806.75 141.78
  Q 806.75 145.09 810.06 145.23
  L 829.80 146.10"
/>
<path stroke="#a48016" vector-effect="non-scaling-stroke" d="
  M 1075.27 120.37
  Q 1074.51 122.04 1075.18 122.98
  Q 1075.58 123.54 1075.89 122.92
  Q 1082.62 109.54 1090.73 96.95
  Q 1091.02 96.50 1090.80 96.00
  Q 1089.46 92.93 1088.61 94.66"
/>
<path stroke="#a48016" vector-effect="non-scaling-stroke" d="
  M 1075.22 146.44
  L 1076.26 146.09
  A 0.36 0.36 0.0 0 0 1076.31 145.43
  C 1075.15 144.84 1074.26 143.98 1074.23 142.56
  Q 1074.05 133.57 1074.33 124.45
  A 1.85 1.81 31.3 0 0 1074.09 123.51
  Q 1066.72 110.93 1059.32 98.35
  Q 1058.48 96.91 1057.60 96.21
  Q 1055.66 94.64 1054.65 95.93"
/>
<path stroke="#dab754" vector-effect="non-scaling-stroke" d="
  M 83.33 18.64
  Q 73.79 22.61 68.30 28.80
  C 65.36 32.11 62.00 35.30 59.86 38.02
  C 20.31 88.07 38.18 172.61 103.93 190.25
  Q 108.23 191.41 107.00 189.08"
/>
<path stroke="#dab754" vector-effect="non-scaling-stroke" d="
  M 140.30 187.47
  L 140.29 188.78
  Q 140.29 189.39 140.89 189.26
  Q 144.50 188.46 148.53 186.76
  C 180.12 173.44 199.48 143.59 202.54 109.99
  Q 202.59 109.52 202.90 109.15
  Q 203.33 108.64 203.39 108.07
  Q 204.12 101.62 203.73 94.48
  C 203.55 91.30 202.31 88.09 201.85 84.71
  C 198.45 60.19 186.52 38.21 166.83 23.31
  C 162.65 20.15 157.34 17.23 152.54 14.26
  Q 152.11 13.99 151.75 14.37
  Q 151.43 14.71 151.27 15.22"
/>
<path stroke="#dab754" vector-effect="non-scaling-stroke" d="
  M 141.72 11.58
  L 141.79 10.69
  Q 141.83 10.18 141.34 10.05
  Q 118.62 3.70 97.70 11.80"
/>
<path stroke="#90661a" vector-effect="non-scaling-stroke" d="
  M 121.30 30.12
  Q 122.59 31.91 126.07 32.92
  Q 134.55 35.40 142.75 38.76
  A 0.47 0.46 48.4 0 1 142.70 39.64
  Q 137.37 41.15 132.45 44.25"
/>
<path stroke="#90661a" vector-effect="non-scaling-stroke" d="
  M 95.75 42.21
  Q 95.28 41.44 94.54 41.29
  Q 93.98 41.18 94.06 41.74
  Q 94.18 42.62 94.76 43.33"
/>
<path stroke="#90661a" vector-effect="non-scaling-stroke" d="
  M 135.84 52.91
  C 132.83 60.09 120.82 60.58 113.94 60.54"
/>
<path stroke="#755f1d" vector-effect="non-scaling-stroke" d="
  M 113.94 60.54
  L 106.67 59.19"
/>
<path stroke="#90661a" vector-effect="non-scaling-stroke" d="
  M 106.67 59.19
  Q 97.54 56.89 98.19 49.41"
/>
<path stroke="#372408" vector-effect="non-scaling-stroke" d="
  M 114.01 60.70
  Q 113.97 60.62 113.94 60.54"
/>
<path stroke="#372408" vector-effect="non-scaling-stroke" d="
  M 106.67 59.19
  L 104.77 59.28"
/>
<path stroke="#372408" vector-effect="non-scaling-stroke" d="
  M 101.76 156.07
  L 102.22 155.98
  Q 102.50 155.93 102.52 155.64
  Q 102.53 155.46 102.40 155.38"
/>
<path stroke="#755f1d" vector-effect="non-scaling-stroke" d="
  M 102.40 155.38
  C 104.37 149.88 107.89 150.51 112.43 152.81
  C 123.44 158.39 137.95 155.25 143.12 143.64
  C 152.23 123.16 129.68 112.35 116.91 102.84
  C 111.36 98.71 105.17 91.81 106.50 84.55
  Q 108.28 74.84 117.32 73.01
  C 131.11 70.23 138.91 83.52 141.60 94.63
  A 0.50 0.49 71.3 0 0 142.28 94.97
  Q 143.11 94.62 142.96 93.49
  C 142.57 90.51 141.80 87.85 141.70 84.80
  C 141.57 80.99 139.77 75.58 140.37 72.16
  Q 140.44 71.74 140.32 71.50
  Q 140.16 71.16 139.80 71.02
  Q 139.27 70.79 139.17 71.37
  C 138.05 78.28 127.62 72.78 123.90 71.37
  C 117.09 68.79 108.95 73.21 105.02 78.45
  C 98.84 86.68 100.62 100.71 109.42 106.59
  Q 120.51 114.00 130.89 122.37
  C 141.18 130.68 142.94 146.15 128.88 151.94
  C 114.74 157.77 103.98 145.61 100.31 133.45
  Q 99.96 132.29 98.18 132.52"
/>
<path stroke="#372408" vector-effect="non-scaling-stroke" d="
  M 98.18 132.52
  Q 98.46 132.42 98.74 132.32"
/>
<path stroke="#90661a" vector-effect="non-scaling-stroke" d="
  M 102.40 155.38
  Q 100.85 155.43 100.90 152.71
  Q 100.98 147.54 98.18 132.52"
/>
<path stroke="#a48016" vector-effect="non-scaling-stroke" d="
  M 573.17 108.68
  Q 570.57 109.01 569.62 112.17
  C 565.27 126.64 573.29 142.79 588.49 145.78
  Q 595.18 147.09 601.00 145.43
  C 603.99 144.58 616.03 138.61 612.07 134.05"
/>
</g>
<path fill="#cea12e" d="
  M 120.5374 194.4277
  A 94.91 84.98 90.4 0 1 36.2221 98.9267
  A 94.91 84.98 90.4 0 1 121.8626 4.6123
  A 94.91 84.98 90.4 0 1 206.1779 100.1133
  A 94.91 84.98 90.4 0 1 120.5374 194.4277
  Z
  M 97.70 11.80
  L 83.33 18.64
  Q 73.79 22.61 68.30 28.80
  C 65.36 32.11 62.00 35.30 59.86 38.02
  C 20.31 88.07 38.18 172.61 103.93 190.25
  Q 108.23 191.41 107.00 189.08
  C 118.41 192.50 130.02 191.69 140.30 187.47
  L 140.29 188.78
  Q 140.29 189.39 140.89 189.26
  Q 144.50 188.46 148.53 186.76
  C 180.12 173.44 199.48 143.59 202.54 109.99
  Q 202.59 109.52 202.90 109.15
  Q 203.33 108.64 203.39 108.07
  Q 204.12 101.62 203.73 94.48
  C 203.55 91.30 202.31 88.09 201.85 84.71
  C 198.45 60.19 186.52 38.21 166.83 23.31
  C 162.65 20.15 157.34 17.23 152.54 14.26
  Q 152.11 13.99 151.75 14.37
  Q 151.43 14.71 151.27 15.22
  L 141.72 11.58
  L 141.79 10.69
  Q 141.83 10.18 141.34 10.05
  Q 118.62 3.70 97.70 11.80
  Z"
/>
<path fill="#e6cc7a" d="
  M 141.72 11.58
  C 131.93 9.76 120.16 8.32 112.06 9.58
  Q 104.86 10.71 97.70 11.80
  Q 118.62 3.70 141.34 10.05
  Q 141.83 10.18 141.79 10.69
  L 141.72 11.58
  Z"
/>
<path fill="#e6cc7a" d="
  M 140.30 187.47
  Q 153.49 182.36 163.94 175.43
  C 170.90 170.81 177.33 162.68 182.73 156.01
  C 191.83 144.76 194.86 133.51 198.76 118.76
  Q 200.64 111.62 200.63 107.07
  C 200.60 99.81 201.05 92.60 200.02 85.74
  Q 194.86 51.41 169.69 28.01
  C 164.49 23.17 157.52 19.22 151.27 15.22
  Q 151.43 14.71 151.75 14.37
  Q 152.11 13.99 152.54 14.26
  C 157.34 17.23 162.65 20.15 166.83 23.31
  C 186.52 38.21 198.45 60.19 201.85 84.71
  C 202.31 88.09 203.55 91.30 203.73 94.48
  Q 204.12 101.62 203.39 108.07
  Q 203.33 108.64 202.90 109.15
  Q 202.59 109.52 202.54 109.99
  C 199.48 143.59 180.12 173.44 148.53 186.76
  Q 144.50 188.46 140.89 189.26
  Q 140.29 189.39 140.29 188.78
  L 140.30 187.47
  Z"
/>
<path fill="#e6cc7a" d="
  M 83.33 18.64
  C 77.65 23.84 70.02 28.49 65.35 34.10
  C 40.51 63.95 33.50 107.04 51.11 142.28
  C 54.17 148.40 56.52 153.61 61.33 159.53
  C 65.02 164.07 69.79 167.79 74.21 171.81
  C 81.97 178.87 96.34 186.65 107.00 189.08
  Q 108.23 191.41 103.93 190.25
  C 38.18 172.61 20.31 88.07 59.86 38.02
  C 62.00 35.30 65.36 32.11 68.30 28.80
  Q 73.79 22.61 83.33 18.64
  Z"
/>
<path fill="#cea12e" d="
  M 121.30 30.12
  Q 122.59 31.91 126.07 32.92
  Q 134.55 35.40 142.75 38.76
  A 0.47 0.46 48.4 0 1 142.70 39.64
  Q 137.37 41.15 132.45 44.25
  Q 125.23 46.20 118.07 48.83
  C 117.28 49.12 116.21 49.11 115.35 48.76
  Q 105.76 44.92 95.75 42.21
  Q 95.28 41.44 94.54 41.29
  Q 93.98 41.18 94.06 41.74
  Q 94.18 42.62 94.76 43.33
  Q 94.74 48.11 94.66 53.00
  Q 94.64 54.18 93.39 54.50
  A 1.68 1.67 -7.4 0 1 91.29 52.89
  Q 91.25 47.97 91.32 42.99
  Q 91.36 40.29 88.40 39.83
  A 0.71 0.71 0.0 0 1 88.28 38.45
  Q 101.44 33.98 115.28 29.75
  Q 117.28 29.14 121.30 30.12
  Z"
/>
<path fill="#512a06" d="
  M 121.30 30.12
  Q 133.11 34.00 144.19 38.18
  Q 144.99 38.48 145.34 38.97
  A 0.73 0.72 63.0 0 1 144.98 40.08
  L 132.45 44.25
  Q 137.37 41.15 142.70 39.64
  A 0.47 0.46 48.4 0 0 142.75 38.76
  Q 134.55 35.40 126.07 32.92
  Q 122.59 31.91 121.30 30.12
  Z"
/>
<path fill="#512a06" d="
  M 95.75 42.21
  Q 95.08 42.43 94.76 43.33
  Q 94.18 42.62 94.06 41.74
  Q 93.98 41.18 94.54 41.29
  Q 95.28 41.44 95.75 42.21
  Z"
/>
<path fill="#cea12e" d="
  M 135.84 52.91
  C 132.83 60.09 120.82 60.58 113.94 60.54
  L 106.67 59.19
  Q 97.54 56.89 98.19 49.41
  L 98.25 46.70
  Q 98.28 45.56 99.34 45.96
  C 103.28 47.45 114.59 52.40 118.18 51.47
  Q 126.73 49.27 134.85 45.78
  Q 135.37 45.56 135.51 46.11
  Q 136.41 49.62 135.84 52.91
  Z"
/>
<path fill="#512a06" d="
  M 98.19 49.41
  Q 97.54 56.89 106.67 59.19
  L 104.77 59.28
  Q 96.49 57.09 98.19 49.41
  Z"
/>
<path fill="#512a06" d="
  M 135.84 52.91
  C 138.04 60.52 117.69 61.13 114.01 60.70
  Q 113.97 60.62 113.94 60.54
  C 120.82 60.58 132.83 60.09 135.84 52.91
  Z"
/>
<path fill="#1c1d0b" fill-opacity="0.996" d="
  M 104.77 59.28
  L 106.67 59.19
  L 113.94 60.54
  Q 113.97 60.62 114.01 60.70
  Q 109.19 61.13 104.77 59.28
  Z"
/>
<path fill="#1c1d0b" fill-opacity="0.996" d="
  M 101.76 156.07
  L 102.22 155.98
  Q 102.50 155.93 102.52 155.64
  Q 102.53 155.46 102.40 155.38
  C 104.37 149.88 107.89 150.51 112.43 152.81
  C 123.44 158.39 137.95 155.25 143.12 143.64
  C 152.23 123.16 129.68 112.35 116.91 102.84
  C 111.36 98.71 105.17 91.81 106.50 84.55
  Q 108.28 74.84 117.32 73.01
  C 131.11 70.23 138.91 83.52 141.60 94.63
  A 0.50 0.49 71.3 0 0 142.28 94.97
  Q 143.11 94.62 142.96 93.49
  C 142.57 90.51 141.80 87.85 141.70 84.80
  C 141.57 80.99 139.77 75.58 140.37 72.16
  Q 140.44 71.74 140.32 71.50
  Q 140.16 71.16 139.80 71.02
  Q 139.27 70.79 139.17 71.37
  C 138.05 78.28 127.62 72.78 123.90 71.37
  C 117.09 68.79 108.95 73.21 105.02 78.45
  C 98.84 86.68 100.62 100.71 109.42 106.59
  Q 120.51 114.00 130.89 122.37
  C 141.18 130.68 142.94 146.15 128.88 151.94
  C 114.74 157.77 103.98 145.61 100.31 133.45
  Q 99.96 132.29 98.18 132.52
  Q 98.46 132.42 98.74 132.32
  Q 101.00 131.74 101.54 133.24
  C 104.07 140.32 108.06 147.14 114.89 150.23
  C 126.11 155.31 140.97 146.38 137.07 133.05
  C 133.86 122.09 117.87 114.82 109.18 108.01
  Q 96.83 98.33 101.18 83.43
  Q 104.58 71.76 116.01 69.68
  C 122.38 68.51 129.01 70.81 134.79 73.73
  A 1.00 0.99 -47.6 0 0 135.75 73.68
  Q 137.53 72.57 137.64 70.31
  A 0.96 0.95 -1.1 0 1 138.52 69.41
  L 140.72 69.22
  Q 141.42 69.16 141.54 69.86
  C 141.86 71.84 141.62 73.60 142.09 75.54
  C 143.19 80.11 142.63 84.41 143.58 88.99
  C 143.93 90.69 144.77 94.83 143.34 96.19
  Q 142.19 97.27 140.67 96.06
  C 139.14 94.83 139.22 91.95 138.69 90.42
  C 136.42 83.81 134.08 78.79 127.51 75.61
  C 120.95 72.43 113.32 73.46 109.50 79.95
  C 105.40 86.90 109.28 95.10 115.40 99.85
  Q 125.05 107.34 128.19 109.31
  C 137.11 114.93 146.19 123.06 146.51 134.28
  C 146.94 149.54 134.27 158.08 120.03 156.75
  C 115.93 156.37 111.36 154.26 107.21 152.83
  Q 106.76 152.68 106.32 152.85
  Q 104.61 153.51 104.01 155.26
  A 1.47 1.43 -6.6 0 1 103.36 156.06
  Q 102.56 156.53 101.76 156.07
  Z"
/>
<path fill="#cea12e" d="
  M 102.40 155.38
  Q 100.85 155.43 100.90 152.71
  Q 100.98 147.54 98.18 132.52
  Q 99.96 132.29 100.31 133.45
  C 103.98 145.61 114.74 157.77 128.88 151.94
  C 142.94 146.15 141.18 130.68 130.89 122.37
  Q 120.51 114.00 109.42 106.59
  C 100.62 100.71 98.84 86.68 105.02 78.45
  C 108.95 73.21 117.09 68.79 123.90 71.37
  C 127.62 72.78 138.05 78.28 139.17 71.37
  Q 139.27 70.79 139.80 71.02
  Q 140.16 71.16 140.32 71.50
  Q 140.44 71.74 140.37 72.16
  C 139.77 75.58 141.57 80.99 141.70 84.80
  C 141.80 87.85 142.57 90.51 142.96 93.49
  Q 143.11 94.62 142.28 94.97
  A 0.50 0.49 71.3 0 1 141.60 94.63
  C 138.91 83.52 131.11 70.23 117.32 73.01
  Q 108.28 74.84 106.50 84.55
  C 105.17 91.81 111.36 98.71 116.91 102.84
  C 129.68 112.35 152.23 123.16 143.12 143.64
  C 137.95 155.25 123.44 158.39 112.43 152.81
  C 107.89 150.51 104.37 149.88 102.40 155.38
  Z"
/>
<path fill="#e6cc7a" d="
  M 179.35 103.02
  L 173.22 103.66
  A 0.93 0.93 0.0 0 0 172.66 103.94
  L 170.31 106.48
  A 1.43 1.43 0.0 0 1 167.92 105.02
  L 169.15 101.66
  A 1.25 1.23 46.3 0 0 169.16 100.81
  L 167.90 97.09
  A 1.34 1.34 0.0 0 1 170.25 95.86
  Q 173.52 100.27 179.19 99.12
  Q 179.67 99.03 179.45 98.59
  L 175.79 91.38
  A 1.48 1.48 0.0 0 1 175.94 89.81
  Q 177.41 87.93 179.14 89.59
  Q 181.30 91.67 185.10 98.24
  A 0.85 0.83 72.3 0 0 185.89 98.66
  C 189.02 98.45 194.33 97.41 195.86 100.86
  A 1.85 1.85 0.0 0 1 194.25 103.45
  L 186.07 103.81
  A 0.84 0.82 15.2 0 0 185.42 104.17
  L 179.41 113.15
  A 0.96 0.95 -68.4 0 1 178.48 113.56
  L 175.77 113.20
  Q 174.86 113.07 175.26 112.24
  L 179.55 103.29
  Q 179.69 102.99 179.35 103.02
  Z"
/>
<path fill="#cea12e" d="
  M 60.83 104.23
  L 64.43 111.99
  A 1.00 0.99 83.5 0 1 63.33 113.38
  C 59.98 112.70 57.29 107.47 55.61 104.72
  C 53.22 100.83 46.02 106.06 44.72 101.34
  A 1.74 1.74 0.0 0 1 46.27 99.14
  L 53.58 98.59
  A 2.77 2.76 -74.6 0 0 55.63 97.42
  L 61.14 89.56
  A 1.72 1.71 -15.8 0 1 64.12 91.22
  L 61.09 98.22
  A 0.55 0.55 0.0 0 0 61.59 98.99
  L 66.57 99.00
  Q 67.06 99.01 67.41 98.67
  L 70.49 95.73
  A 1.20 1.19 79.9 0 1 72.41 97.07
  L 70.77 100.88
  A 0.86 0.82 -45.6 0 0 70.76 101.55
  L 72.44 105.61
  A 0.73 0.73 0.0 0 1 72.12 106.52
  C 70.88 107.22 69.84 106.77 68.98 105.63
  Q 66.24 102.00 61.15 103.53
  Q 60.59 103.70 60.83 104.23
  Z"
/>
<path fill="#f7d626" d="
  M 268.92 95.72
  Q 268.75 94.32 266.27 95.17
  C 260.79 92.21 253.07 92.15 250.02 98.21
  Q 249.57 98.56 249.26 98.44
  Q 248.59 98.18 249.00 97.57
  Q 249.03 97.53 248.96 97.48
  Q 248.93 97.46 248.91 97.42
  Q 248.82 97.28 248.81 97.32
  Q 248.26 99.06 247.42 100.69
  A 1.52 1.51 54.6 0 0 247.27 101.60
  C 249.24 116.95 268.09 117.63 267.95 133.32
  Q 267.95 133.89 267.38 133.96
  Q 266.37 134.08 265.06 133.60
  C 264.78 131.40 264.71 129.34 263.27 127.46
  Q 258.39 121.10 255.67 119.33
  C 235.64 106.27 245.00 83.67 268.80 91.66
  Q 269.26 91.81 269.22 92.29
  L 268.92 95.72
  Z"
/>
<path fill="#512a06" d="
  M 323.29 144.65
  Q 320.09 141.86 319.45 140.27
  Q 316.32 132.43 304.91 101.57
  Q 302.75 95.75 302.15 92.07
  Q 302.09 91.76 301.78 91.73
  Q 301.67 91.72 301.53 91.72
  Q 301.89 90.60 302.28 90.42
  Q 303.26 89.97 303.56 90.77
  Q 313.04 115.96 322.76 140.71
  Q 324.10 144.13 328.42 144.29
  Q 328.57 144.30 328.52 144.43
  Q 328.48 144.56 328.44 144.69
  Q 328.43 144.72 328.31 144.72
  L 323.29 144.65
  Z"
/>
<path fill="#512a06" d="
  M 469.02 91.05
  Q 469.84 92.03 469.99 94.12
  Q 469.36 115.45 469.78 137.00
  C 469.82 138.99 469.63 142.81 472.63 143.87
  Q 473.07 144.03 473.55 143.99
  Q 474.68 143.89 475.77 144.21
  Q 476.99 144.58 475.74 144.78
  Q 472.40 145.33 469.29 144.39
  C 467.68 142.83 466.75 142.02 466.75 139.60
  Q 466.74 117.54 466.76 95.46
  Q 466.76 94.96 466.41 94.60
  Q 464.03 92.16 460.73 91.62
  A 0.62 0.61 10.6 0 0 460.02 92.10
  Q 459.85 92.83 460.16 93.50
  Q 458.59 92.89 458.25 92.33
  A 1.38 1.38 0.0 0 1 459.73 90.26
  Q 464.82 91.43 469.02 91.05
  Z"
/>
<path fill="#f7d626" d="
  M 372.81 90.96
  Q 373.83 92.77 375.62 93.96
  A 0.92 0.91 17.6 0 1 376.03 94.74
  C 375.86 101.39 377.20 129.29 373.76 133.31
  Q 372.85 134.36 371.73 133.76
  C 371.97 131.37 372.77 128.89 372.93 126.71
  Q 374.07 111.52 373.09 96.32
  Q 372.83 92.20 369.11 91.82
  A 0.50 0.50 0.0 0 1 369.18 90.83
  L 372.81 90.96
  Z"
/>
<path fill="#cea12e" d="
  M 379.26 93.02
  Q 378.37 92.57 378.22 91.76
  Q 378.14 91.31 378.75 91.10
  Q 381.30 90.26 383.22 91.07
  A 0.49 0.49 0.0 0 1 383.03 92.02
  Q 380.90 92.03 379.26 93.02
  Z"
/>
<path fill="#cea12e" d="
  M 397.84 91.02
  Q 397.60 91.39 397.96 91.98
  Q 397.53 91.93 397.17 92.19
  Q 396.89 92.39 396.93 92.74
  L 396.98 93.32
  Q 395.57 92.17 393.90 91.86
  Q 393.17 91.73 393.72 91.23
  Q 394.94 90.12 397.84 91.02
  Z"
/>
<path fill="#cea12e" d="
  M 469.99 94.12
  Q 469.84 92.03 469.02 91.05
  L 473.48 90.73
  A 0.52 0.52 0.0 0 1 473.80 91.68
  L 469.99 94.12
  Z"
/>
<path fill="#cea12e" d="
  M 336.11 91.31
  Q 335.49 91.36 336.26 92.76
  Q 335.43 93.17 335.86 93.48
  Q 334.27 92.06 332.16 91.66
  Q 331.28 91.49 332.12 91.17
  Q 333.86 90.50 336.11 91.31
  Z"
/>
<path fill="#512a06" d="
  M 371.73 133.76
  Q 372.85 134.36 373.76 133.31
  C 377.20 129.29 375.86 101.39 376.03 94.74
  A 0.92 0.91 17.6 0 0 375.62 93.96
  Q 373.83 92.77 372.81 90.96
  L 378.75 91.10
  Q 378.14 91.31 378.22 91.76
  Q 378.37 92.57 379.26 93.02
  Q 378.12 96.68 378.16 97.74
  Q 378.63 112.28 377.74 126.74
  Q 377.15 136.32 370.09 142.28
  Q 370.18 141.39 368.91 141.43
  Q 368.36 141.45 367.66 141.83
  Q 359.08 146.49 349.62 143.03
  Q 340.48 138.40 339.73 127.53
  Q 338.78 113.64 339.57 95.39
  A 0.93 0.91 -73.0 0 0 339.15 94.58
  L 336.26 92.76
  Q 335.49 91.36 336.11 91.31
  L 344.98 91.02
  Q 345.81 90.99 345.11 91.43
  Q 342.57 92.99 342.55 96.24
  C 342.48 104.61 342.66 113.01 342.40 121.36
  C 342.17 128.54 343.27 136.72 349.76 140.78
  C 357.75 145.79 367.97 142.81 371.73 133.76
  Z"
/>
<path fill="#512a06" d="
  M 397.84 91.02
  Q 400.29 91.36 403.00 91.21
  C 413.79 90.59 422.55 90.37 431.75 93.82
  C 447.37 99.66 451.22 117.80 443.90 131.51
  Q 442.49 130.28 442.78 129.26
  C 445.18 120.90 445.02 110.92 440.39 103.61
  C 433.69 93.01 418.64 91.53 406.82 92.68
  Q 405.92 92.77 405.30 93.01
  A 0.77 0.77 0.0 0 0 405.52 94.49
  L 406.44 94.56
  Q 405.54 95.62 405.53 97.50
  C 405.47 111.51 405.30 125.49 405.93 139.50
  Q 405.95 140.03 406.35 140.38
  C 409.26 142.94 412.70 142.67 416.30 143.21
  Q 409.54 145.34 403.66 142.56
  C 401.83 141.70 402.63 139.45 402.59 138.20
  Q 401.92 117.01 402.56 95.77
  A 1.51 1.50 -62.7 0 0 402.27 94.85
  Q 400.75 92.83 397.96 91.98
  Q 397.60 91.39 397.84 91.02
  Z"
/>
<path fill="#f7d626" d="
  M 301.53 91.72
  Q 301.67 91.72 301.78 91.73
  Q 302.09 91.76 302.15 92.07
  Q 302.75 95.75 304.91 101.57
  Q 316.32 132.43 319.45 140.27
  Q 320.09 141.86 323.29 144.65
  L 317.27 144.16
  Q 316.79 144.12 316.64 143.67
  C 314.71 137.84 312.13 128.17 308.35 123.44
  Q 307.99 122.99 309.17 122.98
  A 0.54 0.54 0.0 0 0 309.71 122.44
  Q 309.71 121.47 308.00 120.91
  Q 305.56 111.58 301.40 101.70
  L 301.29 97.69
  A 0.31 0.31 0.0 0 0 300.68 97.60
  L 285.46 141.43
  Q 285.27 141.98 285.66 142.42
  L 287.33 144.26
  L 277.27 145.02
  Q 277.05 145.04 277.01 144.82
  Q 276.98 144.66 277.04 144.55
  Q 277.05 144.52 277.09 144.52
  C 280.82 144.52 282.48 142.01 283.64 138.85
  Q 292.05 115.89 300.50 92.96
  Q 300.82 92.09 301.53 91.72
  Z"
/>
<path fill="#f7d626" d="
  M 469.29 144.39
  L 461.50 144.73
  Q 461.14 144.07 461.22 142.98
  Q 462.98 139.08 462.99 136.50
  Q 463.05 118.49 462.95 100.51
  Q 462.92 95.09 460.16 93.50
  Q 459.85 92.83 460.02 92.10
  A 0.62 0.61 10.6 0 1 460.73 91.62
  Q 464.03 92.16 466.41 94.60
  Q 466.76 94.96 466.76 95.46
  Q 466.74 117.54 466.75 139.60
  C 466.75 142.02 467.68 142.83 469.29 144.39
  Z"
/>
<path fill="#f7d626" d="
  M 397.96 91.98
  Q 400.75 92.83 402.27 94.85
  A 1.51 1.50 -62.7 0 1 402.56 95.77
  Q 401.92 117.01 402.59 138.20
  C 402.63 139.45 401.83 141.70 403.66 142.56
  Q 409.54 145.34 416.30 143.21
  L 419.42 143.07
  C 425.59 145.12 433.29 141.03 437.76 137.06
  C 438.92 136.02 439.74 133.92 437.86 133.22
  Q 444.57 116.72 434.82 101.88
  Q 433.93 100.52 432.42 99.56
  Q 420.67 92.04 406.44 94.56
  L 405.52 94.49
  A 0.77 0.77 0.0 0 1 405.30 93.01
  Q 405.92 92.77 406.82 92.68
  C 418.64 91.53 433.69 93.01 440.39 103.61
  C 445.02 110.92 445.18 120.90 442.78 129.26
  Q 442.49 130.28 443.90 131.51
  Q 438.21 141.54 427.67 144.48
  C 422.19 146.01 415.44 145.34 409.31 145.23
  C 405.99 145.17 402.29 143.79 398.31 144.41
  Q 397.83 144.48 397.90 144.00
  C 400.33 128.80 399.49 111.53 399.02 98.50
  Q 398.92 95.65 396.98 93.32
  L 396.93 92.74
  Q 396.89 92.39 397.17 92.19
  Q 397.53 91.93 397.96 91.98
  Z"
/>
<path fill="#512a06" d="
  M 553.93 98.16
  Q 553.79 96.39 552.69 95.99
  C 541.64 92.06 525.73 91.60 517.13 101.11
  Q 514.46 104.06 513.39 102.50
  C 523.91 88.60 541.00 91.91 555.33 94.11
  A 0.82 0.81 5.5 0 1 556.03 94.95
  L 555.67 103.94
  Q 555.66 104.05 555.55 104.02
  Q 555.43 103.98 555.31 103.94
  Q 555.29 103.93 555.27 103.84
  L 553.93 98.16
  Z"
/>
<path fill="#512a06" d="
  M 617.59 133.06
  Q 618.15 120.62 617.88 117.21
  Q 616.14 95.48 593.97 93.36
  C 586.34 92.63 580.22 95.73 574.83 101.02
  Q 572.33 103.47 569.48 105.03
  Q 579.52 90.04 596.44 92.13
  C 617.46 94.72 627.45 114.36 617.59 133.06
  Z"
/>
<path fill="#512a06" d="
  M 677.85 136.60
  Q 677.92 138.15 679.67 139.71
  Q 680.08 140.08 680.08 139.53
  L 679.83 96.46
  Q 679.83 95.98 679.43 95.72
  L 675.02 92.73
  L 682.21 93.01
  Q 680.92 96.18 681.99 96.35
  C 681.33 104.15 681.67 112.46 681.73 120.57
  C 681.80 128.90 682.60 138.59 681.57 146.76
  Q 681.51 147.24 681.04 147.14
  Q 680.64 147.05 680.53 146.56
  Q 680.15 142.81 678.23 140.78
  Q 659.17 120.60 640.15 100.38
  C 638.20 98.32 637.25 96.15 636.27 93.61
  Q 636.15 93.29 635.81 93.24
  Q 635.67 93.22 635.51 93.21
  L 636.05 92.15
  A 0.43 0.43 0.0 0 1 636.74 92.06
  L 677.85 136.60
  Z"
/>
<path fill="#512a06" d="
  M 721.84 96.91
  Q 723.71 96.38 722.19 95.11
  Q 721.67 94.68 720.85 94.45
  C 714.59 92.67 708.34 92.86 704.37 97.81
  A 0.73 0.73 0.0 0 0 705.15 98.97
  L 705.92 98.74
  C 699.90 112.69 724.71 117.25 725.76 132.10
  Q 726.12 137.23 723.13 140.91
  Q 713.95 148.31 703.62 145.87
  Q 698.37 145.39 698.77 137.87
  Q 698.78 137.63 699.09 137.59
  A 0.40 0.39 -3.6 0 1 699.55 137.99
  C 699.22 146.96 720.35 149.18 720.29 135.37
  Q 722.57 136.89 722.89 135.50
  C 726.25 121.29 701.20 117.51 702.58 101.21
  Q 702.62 100.75 702.16 100.70
  Q 701.24 100.60 700.95 99.54
  C 705.68 90.76 715.87 90.94 724.27 93.37
  Q 724.83 93.54 724.81 94.12
  L 724.59 101.17
  A 0.52 0.52 0.0 0 1 723.55 101.16
  Q 723.51 98.15 721.84 96.91
  Z"
/>
<path fill="#f7d626" d="
  M 899.33 92.13
  Q 897.35 93.59 898.39 96.55
  Q 902.92 109.48 915.30 141.68
  C 916.21 144.05 918.84 147.23 921.40 145.43
  L 925.75 146.34
  A 0.43 0.42 -36.9 0 1 925.63 147.18
  L 914.13 146.33
  Q 913.87 146.31 913.65 146.45
  Q 913.31 146.65 912.94 146.32
  Q 912.55 145.98 912.53 145.47
  Q 912.44 143.88 911.86 142.42
  Q 908.52 133.97 905.29 125.46
  Q 905.81 124.06 904.34 122.94
  L 897.39 103.25
  L 897.59 98.80
  A 0.30 0.30 0.0 0 0 897.01 98.68
  Q 889.05 120.79 881.70 142.99
  Q 881.18 144.56 882.96 145.54
  Q 883.50 145.83 882.99 146.17
  L 882.23 146.66
  L 875.26 146.66
  Q 874.44 146.66 875.03 146.08
  C 876.70 144.45 878.48 143.42 879.37 141.18
  C 885.75 125.12 891.51 106.97 896.55 94.03
  Q 897.32 92.07 899.33 92.13
  Z"
/>
<path fill="#512a06" d="
  M 975.89 136.18
  Q 976.23 138.18 977.74 139.85
  Q 978.09 140.24 978.08 139.72
  Q 977.91 119.83 978.03 99.94
  C 978.04 98.98 978.58 97.69 978.00 96.46
  C 977.39 95.18 975.74 95.00 975.46 93.04
  L 980.95 93.11
  Q 981.52 93.12 981.26 93.62
  Q 980.00 96.09 980.04 99.50
  Q 980.24 115.34 979.65 146.52
  Q 979.64 147.03 979.15 147.17
  Q 978.60 147.33 978.39 146.66
  Q 978.44 142.86 975.48 139.77
  Q 956.69 120.18 938.25 100.27
  C 936.21 98.08 935.41 95.57 933.92 92.97
  Q 933.67 92.63 934.27 92.22
  Q 934.71 91.92 935.07 92.31
  Q 953.64 112.67 972.36 132.90
  Q 974.47 135.18 975.89 136.18
  Z"
/>
<path fill="#512a06" d="
  M 1039.89 97.66
  Q 1040.11 97.10 1040.51 97.14
  A 0.43 0.42 -31.5 0 0 1040.71 96.32
  Q 1031.06 92.67 1020.98 93.71
  C 1012.83 94.55 1008.82 96.52 1003.64 102.01
  Q 1001.85 103.91 999.63 104.11
  C 1009.71 88.29 1027.28 92.17 1042.40 93.85
  Q 1043.57 93.98 1043.45 95.16
  L 1042.60 103.18
  Q 1042.59 103.28 1042.58 103.28
  Q 1042.45 103.23 1042.31 103.19
  Q 1042.28 103.18 1042.27 103.06
  Q 1042.12 100.58 1041.34 98.22
  Q 1041.17 97.68 1040.87 97.54
  Q 1040.44 97.34 1039.89 97.66
  Z"
/>
<path fill="#f7d626" d="
  M 675.02 92.73
  L 679.43 95.72
  Q 679.83 95.98 679.83 96.46
  L 680.08 139.53
  Q 680.08 140.08 679.67 139.71
  Q 677.92 138.15 677.85 136.60
  Q 677.84 122.12 677.80 108.52
  C 677.79 104.19 677.87 95.27 672.40 94.04
  A 0.59 0.59 0.0 0 1 672.28 92.93
  Q 674.71 91.77 675.02 92.73
  Z"
/>
<path fill="#f7d626" d="
  M 832.94 92.75
  Q 832.26 93.58 832.93 94.32
  Q 833.35 94.78 833.96 94.79
  L 851.69 95.03
  A 1.17 1.17 0.0 0 1 852.85 96.19
  L 853.06 143.09
  A 1.45 1.40 -65.4 0 0 853.36 143.94
  L 855.28 146.39
  C 852.71 146.57 848.57 147.57 846.08 146.88
  Q 845.13 146.62 846.06 146.28
  L 847.08 145.90
  A 0.80 0.76 3.6 0 0 847.50 145.55
  Q 849.48 142.17 849.50 138.07
  Q 849.58 118.28 849.46 97.84
  A 1.32 1.32 0.0 0 0 848.16 96.52
  C 842.74 96.47 836.17 95.58 831.20 97.88
  Q 830.61 98.15 830.49 97.51
  Q 829.47 91.64 832.94 92.75
  Z"
/>
<path fill="#f7d626" d="
  M 739.21 92.99
  L 743.13 96.29
  A 1.05 1.03 -70.4 0 1 743.50 97.09
  Q 743.45 110.27 743.66 123.43
  C 743.84 135.48 747.25 145.98 761.33 146.34
  Q 767.03 146.48 772.20 143.54
  Q 772.84 143.18 773.34 143.19
  Q 774.35 143.21 774.42 143.94
  Q 764.05 150.93 753.72 145.55
  Q 753.28 145.32 752.81 145.46
  C 748.65 146.73 744.52 141.19 742.66 138.32
  Q 741.44 136.45 740.56 131.14
  C 738.61 119.41 741.60 106.77 739.37 95.15
  Q 739.25 94.53 738.64 94.38
  L 734.74 93.38
  A 0.25 0.25 0.0 0 1 734.72 92.90
  Q 737.18 92.05 739.21 92.99
  Z"
/>
<path fill="#cea12e" d="
  M 777.26 93.00
  L 777.23 93.97
  L 776.48 94.61
  L 772.74 93.55
  Q 771.86 93.30 772.71 92.96
  Q 774.94 92.07 777.26 93.00
  Z"
/>
<path fill="#cea12e" d="
  M 783.45 95.03
  Q 782.17 95.32 783.26 92.75
  Q 785.96 92.02 787.98 92.69
  A 0.71 0.71 0.0 0 1 787.63 94.06
  Q 785.02 93.61 783.45 95.03
  Z"
/>
<path fill="#512a06" d="
  M 832.94 92.75
  L 874.30 92.88
  A 0.96 0.95 -87.3 0 1 875.25 93.93
  L 874.73 99.06
  Q 874.68 99.50 874.32 99.24
  Q 873.95 98.97 873.82 98.44
  C 874.21 96.12 872.49 95.00 870.29 95.02
  Q 862.69 95.08 854.94 94.78
  Q 854.32 94.76 854.57 95.33
  Q 855.17 96.67 857.54 96.64
  L 856.61 96.75
  Q 855.92 96.84 855.93 97.53
  L 856.17 143.21
  A 0.75 0.74 29.5 0 0 856.28 143.60
  Q 858.08 146.59 861.47 146.22
  Q 861.89 146.18 861.90 146.60
  Q 861.91 147.06 861.49 147.06
  Q 859.00 147.06 855.28 146.39
  L 853.36 143.94
  A 1.45 1.40 -65.4 0 1 853.06 143.09
  L 852.85 96.19
  A 1.17 1.17 0.0 0 0 851.69 95.03
  L 833.96 94.79
  Q 833.35 94.78 832.93 94.32
  Q 832.26 93.58 832.94 92.75
  Z"
/>
<path fill="#512a06" d="
  M 899.33 92.13
  Q 908.75 117.88 918.88 142.87
  C 919.36 144.04 920.43 144.80 921.40 145.43
  C 918.84 147.23 916.21 144.05 915.30 141.68
  Q 902.92 109.48 898.39 96.55
  Q 897.35 93.59 899.33 92.13
  Z"
/>
<path fill="#f7d626" d="
  M 975.46 93.04
  C 975.74 95.00 977.39 95.18 978.00 96.46
  C 978.58 97.69 978.04 98.98 978.03 99.94
  Q 977.91 119.83 978.08 139.72
  Q 978.09 140.24 977.74 139.85
  Q 976.23 138.18 975.89 136.18
  Q 976.15 116.19 974.92 96.12
  A 1.90 1.89 -84.3 0 0 973.51 94.39
  L 970.48 93.57
  Q 969.68 93.35 970.46 93.07
  Q 973.01 92.14 975.46 93.04
  Z"
/>
<path fill="#f7d626" d="
  M 336.26 92.76
  L 339.15 94.58
  A 0.93 0.91 -73.0 0 1 339.57 95.39
  Q 338.78 113.64 339.73 127.53
  Q 340.48 138.40 349.62 143.03
  Q 349.84 143.16 349.93 143.29
  Q 350.18 143.63 349.76 143.70
  L 348.69 143.86
  C 340.21 143.49 336.50 133.18 336.15 125.95
  Q 335.38 109.77 335.86 93.48
  Q 335.43 93.17 336.26 92.76
  Z"
/>
<path fill="#cea12e" d="
  M 681.99 96.35
  Q 680.92 96.18 682.21 93.01
  L 686.93 92.81
  A 0.46 0.46 0.0 0 1 687.02 93.72
  L 683.61 94.19
  A 0.52 0.51 12.6 0 0 683.24 94.42
  L 681.99 96.35
  Z"
/>
<path fill="#cea12e" d="
  M 746.96 96.07
  L 746.95 93.05
  Q 749.19 92.33 750.84 92.94
  Q 751.60 93.22 750.81 93.40
  Q 748.59 93.92 746.96 96.07
  Z"
/>
<path fill="#512a06" d="
  M 783.26 92.75
  Q 782.17 95.32 783.45 95.03
  Q 782.36 98.45 782.39 99.49
  Q 783.14 121.44 781.92 131.17
  Q 780.95 138.96 774.42 143.94
  Q 774.35 143.21 773.34 143.19
  Q 772.84 143.18 772.20 143.54
  Q 767.03 146.48 761.33 146.34
  C 747.25 145.98 743.84 135.48 743.66 123.43
  Q 743.45 110.27 743.50 97.09
  A 1.05 1.03 -70.4 0 0 743.13 96.29
  L 739.21 92.99
  L 746.95 93.05
  L 746.96 96.07
  Q 746.36 114.03 747.04 129.48
  C 747.71 144.78 765.67 151.22 774.80 138.51
  Q 775.59 139.02 776.15 138.97
  Q 776.64 138.93 777.02 138.13
  Q 780.22 131.46 780.24 123.99
  Q 780.28 110.36 780.24 96.66
  Q 780.23 96.17 779.83 95.88
  L 777.23 93.97
  L 777.26 93.00
  L 783.26 92.75
  Z"
/>
<path fill="#f7d626" d="
  M 801.52 92.79
  L 805.73 95.78
  A 2.41 2.41 0.0 0 1 806.75 97.75
  L 806.75 141.78
  Q 806.75 145.09 810.06 145.23
  L 829.80 146.10
  Q 828.05 147.29 824.99 147.21
  Q 813.53 146.90 801.96 146.21
  A 0.44 0.44 0.0 0 1 801.59 145.57
  L 802.34 144.07
  Q 802.54 143.68 802.58 143.25
  Q 804.57 119.91 802.93 96.53
  A 2.33 2.32 2.3 0 0 800.96 94.40
  L 797.42 93.86
  A 0.33 0.33 0.0 0 1 797.33 93.24
  Q 799.18 92.41 801.52 92.79
  Z"
/>
<path fill="#512a06" d="
  M 801.52 92.79
  Q 808.17 93.30 813.74 92.70
  Q 815.34 92.52 815.89 93.57
  Q 816.25 94.25 815.48 94.31
  L 812.02 94.59
  Q 811.56 94.62 811.24 94.94
  Q 809.84 96.31 809.82 98.68
  Q 809.66 117.31 809.94 135.94
  Q 809.98 138.81 810.28 141.04
  A 2.80 2.79 -87.6 0 0 812.45 143.40
  C 817.03 144.40 826.41 145.46 830.12 141.53
  Q 830.59 141.03 830.66 141.71
  Q 830.95 144.43 829.80 146.10
  L 810.06 145.23
  Q 806.75 145.09 806.75 141.78
  L 806.75 97.75
  A 2.41 2.41 0.0 0 0 805.73 95.78
  L 801.52 92.79
  Z"
/>
<path fill="#512a06" d="
  M 1075.27 120.37
  Q 1074.51 122.04 1075.18 122.98
  Q 1075.58 123.54 1075.89 122.92
  Q 1082.62 109.54 1090.73 96.95
  Q 1091.02 96.50 1090.80 96.00
  Q 1089.46 92.93 1088.61 94.66
  L 1088.35 93.68
  Q 1088.17 93.00 1088.87 93.00
  L 1097.99 93.00
  Q 1098.68 93.00 1098.07 93.33
  C 1089.92 97.75 1082.61 112.76 1078.44 120.94
  C 1075.70 126.31 1076.89 138.35 1078.06 144.71
  A 0.82 0.82 0.0 0 0 1078.64 145.35
  L 1082.19 146.38
  Q 1082.52 146.47 1082.36 146.77
  Q 1082.27 146.96 1081.93 146.93
  Q 1078.63 146.63 1075.22 146.44
  L 1076.26 146.09
  A 0.36 0.36 0.0 0 0 1076.31 145.43
  C 1075.15 144.84 1074.26 143.98 1074.23 142.56
  Q 1074.05 133.57 1074.33 124.45
  A 1.85 1.81 31.3 0 0 1074.09 123.51
  Q 1066.72 110.93 1059.32 98.35
  Q 1058.48 96.91 1057.60 96.21
  Q 1055.66 94.64 1054.65 95.93
  Q 1053.38 94.31 1050.38 93.67
  Q 1049.96 93.58 1050.25 93.26
  Q 1050.35 93.15 1050.44 93.07
  Q 1050.55 92.98 1050.69 92.99
  L 1060.24 93.32
  Q 1060.60 93.33 1060.66 93.69
  Q 1061.14 96.34 1062.69 99.06
  Q 1070.02 111.91 1075.27 120.37
  Z"
/>
<path fill="#f7d626" d="
  M 617.59 133.06
  C 612.25 144.24 597.15 152.21 585.19 145.46
  Q 584.75 145.21 584.25 145.23
  Q 579.62 145.42 576.48 143.28
  C 564.18 134.92 561.87 117.33 569.48 105.03
  Q 572.33 103.47 574.83 101.02
  C 580.22 95.73 586.34 92.63 593.97 93.36
  Q 616.14 95.48 617.88 117.21
  Q 618.15 120.62 617.59 133.06
  Z
  M 573.17 108.68
  Q 570.57 109.01 569.62 112.17
  C 565.27 126.64 573.29 142.79 588.49 145.78
  Q 595.18 147.09 601.00 145.43
  C 603.99 144.58 616.03 138.61 612.07 134.05
  C 614.48 126.30 615.19 116.45 612.11 108.79
  C 609.68 102.76 606.37 97.65 599.50 96.28
  C 587.79 93.94 577.29 96.04 573.17 108.68
  Z"
/>
<path fill="#f7d626" d="
  M 635.51 93.21
  Q 635.67 93.22 635.81 93.24
  Q 636.15 93.29 636.27 93.61
  C 637.25 96.15 638.20 98.32 640.15 100.38
  Q 659.17 120.60 678.23 140.78
  Q 680.15 142.81 680.53 146.56
  C 678.51 145.26 676.60 144.06 674.91 142.33
  Q 658.08 125.14 651.77 117.98
  Q 644.40 109.63 639.21 104.52
  L 637.41 100.95
  Q 637.09 100.32 637.10 101.02
  L 637.69 143.10
  A 1.20 1.16 -71.1 0 0 638.10 143.98
  Q 639.48 145.15 639.94 146.43
  L 633.52 146.47
  Q 632.97 146.48 633.23 145.98
  C 633.96 144.59 634.74 143.46 634.74 141.80
  Q 634.76 117.96 634.83 94.12
  Q 634.83 93.71 635.15 93.47
  L 635.51 93.21
  Z"
/>
<path fill="#f7d626" d="
  M 933.92 92.97
  C 935.41 95.57 936.21 98.08 938.25 100.27
  Q 956.69 120.18 975.48 139.77
  Q 978.44 142.86 978.39 146.66
  Q 976.56 145.56 975.00 144.00
  Q 954.98 123.93 937.23 104.11
  Q 937.23 103.14 935.84 101.52
  Q 935.40 101.01 935.31 101.68
  Q 935.13 102.98 935.19 104.81
  Q 935.61 119.38 935.54 140.57
  Q 935.53 144.25 938.02 145.69
  Q 938.51 145.98 938.05 146.32
  Q 937.71 146.58 936.98 146.66
  L 930.77 146.67
  Q 930.13 146.67 930.56 146.21
  Q 932.91 143.67 932.93 139.69
  Q 933.05 119.07 933.27 98.47
  C 933.29 96.63 932.30 94.98 933.92 92.97
  Z"
/>
<path fill="#f7d626" d="
  M 553.93 98.16
  C 539.68 93.21 517.34 92.04 514.82 112.29
  L 512.60 112.05
  Q 512.13 112.00 512.05 112.46
  C 507.92 136.29 525.26 148.66 547.14 145.64
  Q 550.17 145.22 553.62 145.40
  C 546.03 150.22 529.68 148.36 522.18 144.00
  C 516.38 140.63 512.62 138.06 510.10 131.70
  Q 503.90 116.04 513.39 102.50
  Q 514.46 104.06 517.13 101.11
  C 525.73 91.60 541.64 92.06 552.69 95.99
  Q 553.79 96.39 553.93 98.16
  Z"
/>
<path fill="#f7d626" d="
  M 721.84 96.91
  C 716.49 94.55 710.16 94.25 705.92 98.74
  L 705.15 98.97
  A 0.73 0.73 0.0 0 1 704.37 97.81
  C 708.34 92.86 714.59 92.67 720.85 94.45
  Q 721.67 94.68 722.19 95.11
  Q 723.71 96.38 721.84 96.91
  Z"
/>
<path fill="#f7d626" d="
  M 1039.89 97.66
  C 1026.92 93.39 1009.74 92.76 1003.09 107.45
  C 997.63 109.69 998.43 120.74 999.49 125.49
  C 1003.68 144.18 1022.23 149.20 1039.08 144.91
  Q 1039.59 144.77 1039.94 144.93
  Q 1040.48 145.18 1040.51 145.70
  Q 1039.26 146.76 1037.78 147.07
  C 1026.14 149.49 1011.33 148.16 1002.89 139.27
  C 994.30 130.22 992.48 114.49 999.63 104.11
  Q 1001.85 103.91 1003.64 102.01
  C 1008.82 96.52 1012.83 94.55 1020.98 93.71
  Q 1031.06 92.67 1040.71 96.32
  A 0.43 0.42 -31.5 0 1 1040.51 97.14
  Q 1040.11 97.10 1039.89 97.66
  Z"
/>
<path fill="#f7d626" d="
  M 777.23 93.97
  L 779.83 95.88
  Q 780.23 96.17 780.24 96.66
  Q 780.28 110.36 780.24 123.99
  Q 780.22 131.46 777.02 138.13
  Q 776.64 138.93 776.15 138.97
  Q 775.59 139.02 774.80 138.51
  Q 777.41 132.27 777.45 127.69
  C 777.54 115.92 778.81 99.23 776.48 94.61
  L 777.23 93.97
  Z"
/>
<path fill="#f7d626" d="
  M 1075.27 120.37
  Q 1081.02 109.22 1087.13 98.58
  C 1087.82 97.37 1088.10 96.02 1088.61 94.66
  Q 1089.46 92.93 1090.80 96.00
  Q 1091.02 96.50 1090.73 96.95
  Q 1082.62 109.54 1075.89 122.92
  Q 1075.58 123.54 1075.18 122.98
  Q 1074.51 122.04 1075.27 120.37
  Z"
/>
<path fill="#512a06" d="
  M 268.92 95.72
  Q 269.27 97.45 268.75 97.87
  Q 268.24 98.28 268.26 97.62
  Q 268.32 94.81 266.27 95.17
  Q 268.75 94.32 268.92 95.72
  Z"
/>
<path fill="#e6cc7a" d="
  M 873.82 98.44
  Q 865.66 96.26 857.54 96.64
  Q 855.17 96.67 854.57 95.33
  Q 854.32 94.76 854.94 94.78
  Q 862.69 95.08 870.29 95.02
  C 872.49 95.00 874.21 96.12 873.82 98.44
  Z"
/>
<path fill="#f7d626" d="
  M 1075.22 146.44
  L 1068.85 146.48
  Q 1068.42 146.49 1068.65 146.13
  C 1071.72 141.36 1070.54 130.70 1070.45 125.06
  Q 1070.40 122.02 1067.14 117.17
  Q 1061.23 108.36 1055.72 99.29
  Q 1054.82 97.82 1054.65 95.93
  Q 1055.66 94.64 1057.60 96.21
  Q 1058.48 96.91 1059.32 98.35
  Q 1066.72 110.93 1074.09 123.51
  A 1.85 1.81 31.3 0 1 1074.33 124.45
  Q 1074.05 133.57 1074.23 142.56
  C 1074.26 143.98 1075.15 144.84 1076.31 145.43
  A 0.36 0.36 0.0 0 1 1076.26 146.09
  L 1075.22 146.44
  Z"
/>
<path fill="#512a06" d="
  M 250.02 98.21
  C 247.17 111.00 266.21 114.82 269.81 126.87
  Q 271.90 133.85 267.53 139.26
  Q 259.64 145.42 253.33 144.69
  Q 251.93 144.53 246.72 143.24
  Q 246.40 143.16 246.25 143.46
  Q 246.19 143.58 246.19 143.72
  L 243.96 143.00
  Q 243.42 142.83 243.63 142.30
  C 244.58 139.87 242.72 138.95 243.35 136.61
  Q 243.65 135.51 243.97 136.60
  L 244.78 139.27
  Q 244.93 139.76 245.35 140.07
  C 252.31 145.03 264.71 144.84 265.06 133.60
  Q 266.37 134.08 267.38 133.96
  Q 267.95 133.89 267.95 133.32
  C 268.09 117.63 249.24 116.95 247.27 101.60
  A 1.52 1.51 54.6 0 1 247.42 100.69
  Q 248.26 99.06 248.81 97.32
  Q 248.82 97.28 248.91 97.42
  Q 248.93 97.46 248.96 97.48
  Q 249.03 97.53 249.00 97.57
  Q 248.59 98.18 249.26 98.44
  Q 249.57 98.56 250.02 98.21
  Z"
/>
<path fill="#512a06" d="
  M 301.40 101.70
  L 294.94 120.04
  A 0.92 0.91 -81.2 0 0 295.83 121.26
  L 308.00 120.91
  Q 309.71 121.47 309.71 122.44
  A 0.54 0.54 0.0 0 1 309.17 122.98
  Q 307.99 122.99 308.35 123.44
  Q 307.30 123.51 307.36 123.83
  Q 307.31 123.23 306.43 123.08
  Q 302.89 122.47 299.67 123.65
  Q 297.91 123.15 295.52 122.84
  C 293.83 122.61 292.78 123.16 293.02 124.96
  Q 293.09 125.46 292.92 125.93
  C 291.25 130.44 286.51 140.98 288.80 144.13
  Q 289.12 144.58 288.58 144.66
  Q 287.92 144.76 287.33 144.26
  L 285.66 142.42
  Q 285.27 141.98 285.46 141.43
  L 300.68 97.60
  A 0.31 0.31 0.0 0 1 301.29 97.69
  L 301.40 101.70
  Z"
/>
<path fill="#512a06" d="
  M 897.39 103.25
  L 890.86 122.18
  A 0.76 0.76 0.0 0 0 891.59 123.18
  L 904.34 122.94
  Q 905.81 124.06 905.29 125.46
  Q 904.03 124.92 903.56 125.76
  Q 898.24 123.57 894.20 126.01
  Q 892.58 124.81 890.25 125.03
  Q 889.73 125.08 889.57 125.57
  C 888.19 129.82 883.45 140.93 884.12 144.79
  Q 884.20 145.30 884.67 145.49
  L 886.52 146.26
  Q 887.23 146.56 886.47 146.67
  Q 884.42 146.97 882.23 146.66
  L 882.99 146.17
  Q 883.50 145.83 882.96 145.54
  Q 881.18 144.56 881.70 142.99
  Q 889.05 120.79 897.01 98.68
  A 0.30 0.30 0.0 0 1 897.59 98.80
  L 897.39 103.25
  Z"
/>
<path fill="#f7d626" d="
  M 700.95 99.54
  Q 701.24 100.60 702.16 100.70
  Q 702.62 100.75 702.58 101.21
  C 701.20 117.51 726.25 121.29 722.89 135.50
  Q 722.57 136.89 720.29 135.37
  C 720.01 120.71 693.82 117.69 700.95 99.54
  Z"
/>
<path fill="#512a06" d="
  M 639.21 104.52
  Q 638.95 123.37 639.88 141.18
  Q 640.16 146.56 645.47 146.35
  Q 645.52 146.35 645.55 146.38
  Q 645.68 146.50 645.70 146.60
  Q 645.72 146.72 645.60 146.71
  L 639.94 146.43
  Q 639.48 145.15 638.10 143.98
  A 1.20 1.16 -71.1 0 1 637.69 143.10
  L 637.10 101.02
  Q 637.09 100.32 637.41 100.95
  L 639.21 104.52
  Z"
/>
<path fill="#512a06" d="
  M 937.23 104.11
  Q 937.11 124.00 937.76 138.75
  C 937.93 142.42 938.34 146.72 943.37 146.24
  Q 943.59 146.22 943.52 146.43
  Q 943.48 146.55 943.44 146.67
  Q 943.41 146.76 943.32 146.76
  L 936.98 146.66
  Q 937.71 146.58 938.05 146.32
  Q 938.51 145.98 938.02 145.69
  Q 935.53 144.25 935.54 140.57
  Q 935.61 119.38 935.19 104.81
  Q 935.13 102.98 935.31 101.68
  Q 935.40 101.01 935.84 101.52
  Q 937.23 103.14 937.23 104.11
  Z"
/>
<path fill="#512a06" d="
  M 1003.09 107.45
  C 1000.83 116.72 1001.21 127.22 1007.11 134.84
  C 1014.51 144.39 1027.10 146.98 1038.31 142.73
  C 1040.90 141.74 1042.18 139.64 1042.77 137.11
  Q 1042.81 136.94 1042.98 136.99
  Q 1043.11 137.04 1043.24 137.08
  Q 1043.27 137.09 1043.27 137.12
  Q 1042.87 141.06 1041.76 144.84
  A 1.00 0.98 89.6 0 1 1041.12 145.50
  L 1040.51 145.70
  Q 1040.48 145.18 1039.94 144.93
  Q 1039.59 144.77 1039.08 144.91
  C 1022.23 149.20 1003.68 144.18 999.49 125.49
  C 998.43 120.74 997.63 109.69 1003.09 107.45
  Z"
/>
<path fill="#512a06" d="
  M 573.17 108.68
  C 569.61 122.37 573.71 140.47 589.58 144.36
  Q 603.84 147.87 612.07 134.05
  C 616.03 138.61 603.99 144.58 601.00 145.43
  Q 595.18 147.09 588.49 145.78
  C 573.29 142.79 565.27 126.64 569.62 112.17
  Q 570.57 109.01 573.17 108.68
  Z"
/>
<path fill="#512a06" d="
  M 514.82 112.29
  Q 514.32 118.13 514.43 119.73
  C 515.30 132.57 524.12 143.18 537.17 144.31
  C 543.77 144.88 552.33 145.17 555.27 137.65
  Q 555.69 136.58 555.71 137.73
  Q 555.82 142.92 553.62 145.40
  Q 550.17 145.22 547.14 145.64
  C 525.26 148.66 507.92 136.29 512.05 112.46
  Q 512.13 112.00 512.60 112.05
  L 514.82 112.29
  Z"
/>
<path fill="#cea12e" d="
  M 307.36 123.83
  Q 303.49 124.98 299.67 123.65
  Q 302.89 122.47 306.43 123.08
  Q 307.31 123.23 307.36 123.83
  Z"
/>
<path fill="#cea12e" d="
  M 903.56 125.76
  Q 899.18 126.77 894.20 126.01
  Q 898.24 123.57 903.56 125.76
  Z"
/>
<path fill="#512a06" d="
  M 98.74 132.32
  Q 98.46 132.42 98.18 132.52
  Q 100.98 147.54 100.90 152.71
  Q 100.85 155.43 102.40 155.38
  Q 102.53 155.46 102.52 155.64
  Q 102.50 155.93 102.22 155.98
  L 101.76 156.07
  Q 100.19 154.94 99.85 152.98
  Q 97.93 141.97 97.23 134.17
  Q 97.15 133.35 97.38 132.88
  Q 97.82 131.99 98.74 132.32
  Z"
/>
<path fill="#512a06" d="
  M 437.86 133.22
  C 439.74 133.92 438.92 136.02 437.76 137.06
  C 433.29 141.03 425.59 145.12 419.42 143.07
  Q 431.44 142.63 437.86 133.22
  Z"
/>
<path fill="#cea12e" d="
  M 267.53 139.26
  C 264.45 145.73 251.14 148.67 246.19 143.72
  Q 246.19 143.58 246.25 143.46
  Q 246.40 143.16 246.72 143.24
  Q 251.93 144.53 253.33 144.69
  Q 259.64 145.42 267.53 139.26
  Z"
/>
<path fill="#cea12e" d="
  M 723.13 140.91
  Q 717.79 149.28 705.78 147.64
  Q 703.86 147.37 703.62 145.87
  Q 713.95 148.31 723.13 140.91
  Z"
/>
<path fill="#cea12e" d="
  M 370.09 142.28
  Q 362.93 147.30 354.39 145.64
  C 352.57 145.29 350.96 144.07 348.69 143.86
  L 349.76 143.70
  Q 350.18 143.63 349.93 143.29
  Q 349.84 143.16 349.62 143.03
  Q 359.08 146.49 367.66 141.83
  Q 368.36 141.45 368.91 141.43
  Q 370.18 141.39 370.09 142.28
  Z"
/>
<path fill="#512a06" d="
  M 461.22 142.98
  Q 461.14 144.07 461.50 144.73
  Q 460.69 144.86 460.30 144.74
  Q 459.83 144.59 460.16 144.21
  L 461.22 142.98
  Z"
/>
</svg>
